<svg width="40" height="30" viewBox="0 0 40 30" fill="none" xmlns="http://www.w3.org/2000/svg">
<mask id="mask0_1_279" style="mask-type:luminance" maskUnits="userSpaceOnUse" x="0" y="-1" width="40" height="31">
<path d="M39.3008 -0.000488281H0V29.9995H39.3008V-0.000488281Z" fill="white"/>
</mask>
<g mask="url(#mask0_1_279)">
<path d="M16.8234 29.4562C11.3396 27.4699 5.70868 26.8824 0 26.502V1.37413C0.177608 1.57066 0.299517 1.69047 0.40461 1.82393C1.46185 3.15967 2.52855 4.487 3.55742 5.84271C3.75709 6.10545 3.90422 6.48273 3.90528 6.80852C3.92629 11.7174 3.92629 16.6263 3.90423 21.5353C3.90107 22.128 3.98935 22.3834 4.67666 22.458C7.96084 22.8195 11.2313 23.2788 14.361 24.4232C14.7593 24.5693 14.9716 24.7879 15.1209 25.1757C15.6558 26.5756 16.2254 27.9617 16.8234 29.4562Z" fill="#FF782D"/>
<path d="M39.3008 1.36362V26.502C33.611 26.8845 27.9833 27.4594 22.5289 29.4467C22.5857 29.2565 22.6214 29.0915 22.6834 28.9381C23.1878 27.6738 23.7102 26.4169 24.1978 25.1463C24.3386 24.7785 24.5446 24.5714 24.9177 24.4337C27.4914 23.489 30.1703 23.0265 32.8712 22.6598C33.5059 22.5736 34.1417 22.458 34.7797 22.4359C35.2904 22.4191 35.3966 22.2142 35.3955 21.7423C35.3797 16.8323 35.3923 11.9234 35.3766 7.01345C35.3745 6.50375 35.4985 6.10334 35.8243 5.70609C36.8626 4.43446 37.8663 3.13235 38.8857 1.8439C38.9939 1.70623 39.1137 1.57907 39.3008 1.36362Z" fill="#FF782D"/>
<path d="M17.4918 16.8639C17.4834 17.7498 17.9268 18.3677 18.6972 18.7923C18.8832 18.8943 19.1165 19.136 19.1176 19.3146C19.1417 22.7806 19.1354 26.2466 19.1323 29.7126C19.1323 29.762 19.1028 29.8124 19.0429 29.9995C18.5816 28.8582 18.1633 27.8335 17.7534 26.8057C16.2832 23.1285 14.8098 19.4513 13.3584 15.7656C13.2533 15.4966 13.2334 15.1382 13.3111 14.8608C13.7736 13.2245 14.2633 11.5966 14.7751 9.97499C14.8991 9.58404 14.8287 9.37175 14.4945 9.13004C11.8461 7.21418 8.8846 5.99299 5.76122 5.11126C5.4617 5.02718 5.14747 4.8191 4.9499 4.57843C3.90842 3.3089 2.90163 2.011 1.88432 0.721504C1.73824 0.536539 1.60162 0.344218 1.4072 0.0825348C6.42331 0.359982 10.914 1.90696 15.0305 4.56057C16.2748 5.36243 17.4623 6.25257 18.6825 7.09227C19.0041 7.31402 19.1512 7.56835 19.1459 7.98557C19.1228 10.0885 19.1281 12.1925 19.1428 14.2964C19.1459 14.6579 19.0671 14.8566 18.6993 15.0163C17.9174 15.3558 17.5002 16.0042 17.4918 16.8639Z" fill="#FF782D"/>
<path d="M37.8694 0.137185C37.7034 0.352626 37.5384 0.569119 37.3702 0.78351C36.3655 2.05829 35.3713 3.34148 34.3446 4.5984C34.1586 4.82541 33.8632 5.02298 33.5805 5.1018C30.4729 5.97093 27.5324 7.19106 24.884 9.06803C24.4921 9.34548 24.4017 9.59035 24.552 10.0559C25.069 11.6554 25.5388 13.2697 26.0043 14.8839C26.0706 15.1141 26.0926 15.4094 26.0075 15.6248C24.141 20.3309 22.2567 25.0296 20.3745 29.7294C20.3545 29.7809 20.3146 29.8261 20.2305 29.9585C20.2 29.7567 20.1675 29.6369 20.1675 29.5171C20.1643 26.1699 20.1706 22.8227 20.158 19.4765C20.1559 19.1087 20.2515 18.9205 20.6109 18.7608C21.3876 18.414 21.8059 17.7687 21.8132 16.9069C21.8195 16.0168 21.3907 15.3631 20.5889 15.0069C20.2536 14.8576 20.1559 14.6853 20.158 14.3395C20.1717 12.1956 20.1569 10.0506 20.178 7.90675C20.1801 7.68185 20.2904 7.37603 20.4575 7.24571C24.3512 4.22007 28.5234 1.7262 33.4208 0.698384C34.8637 0.394664 36.3361 0.228616 37.7948 -0.000488281C37.819 0.0457529 37.8442 0.0909431 37.8694 0.137185Z" fill="#FF782D"/>
</g>
</svg>
